<svg xmlns="http://www.w3.org/2000/svg" width="1344" height="576" viewBox="0 0 1008 432"><g class="svglite"><defs><style><![CDATA[.svglite line,.svglite polyline,.svglite polygon,.svglite path,.svglite circle{fill:none;stroke:#000000;stroke-linecap:round;stroke-linejoin:round;stroke-miterlimit:10.00}.svglite text{white-space:pre}.svglite g.glyphgroup path{fill:inherit;stroke:none}]]></style></defs><rect width="100%" height="100%" style="stroke-linecap:round;stroke-linejoin:round;stroke-miterlimit:10.00;stroke:none;fill:#FFFFFF"/><defs><clipPath id="cpMC4wMHwxMDA4LjAwfDAuMDB8NDMyLjAw"><path d="M0 0h1008v432H0z"/></clipPath></defs><g clip-path="url(#cpMC4wMHwxMDA4LjAwfDAuMDB8NDMyLjAw)"><path d="M0 0h1008v432H0z" style="stroke-width:1.07;stroke:#FFFFFF;fill:#FFFFFF"/></g><defs><clipPath id="cpNDIuOTF8OTI3LjAzfDM4Ljg1fDM4Ni44Nw=="><path d="M42.91 38.85h884.12v348.02H42.91z"/></clipPath></defs><g clip-path="url(#cpNDIuOTF8OTI3LjAzfDM4Ljg1fDM4Ni44Nw==)"><path d="M42.91 38.85h884.12v348.02H42.91z" style="stroke-width:1.07;stroke:none;fill:#EBEBEB"/><path d="M42.91 360.51h884.12M42.91 349.96h884.12M42.91 339.42h884.12M42.91 328.87h884.12M42.91 318.32h884.12M42.91 307.78h884.12M42.91 297.23h884.12M42.91 286.69h884.12M42.91 276.14h884.12M42.91 255.05h884.12M42.91 244.5h884.12M42.91 233.96h884.12M42.91 223.41h884.12M42.91 212.86h884.12M42.91 202.32h884.12M42.91 191.77h884.12M42.91 181.22h884.12M42.91 170.68h884.12M42.91 149.59h884.12M42.91 139.04h884.12M42.91 128.49h884.12M42.91 117.95h884.12M42.91 107.4h884.12M42.91 96.86h884.12M42.91 86.31h884.12M42.91 75.76h884.12M42.91 65.22h884.12M52.87 386.87V38.85m12.85 348.02V38.85m13 348.02V38.85m25.7 348.02V38.85m12.85 348.02V38.85m13 348.02V38.85m25.84 348.02V38.85m12.85 348.02V38.85m13 348.02V38.85m25.7 348.02V38.85m12.85 348.02V38.85m13 348.02V38.85m25.7 348.02V38.85m12.85 348.02V38.85m13 348.02V38.85m25.7 348.02V38.85m12.85 348.02V38.85m13 348.02V38.85m25.84 348.02V38.85m12.85 348.02V38.85m13 348.02V38.85M414 386.87V38.85m12.85 348.02V38.85m13 348.02V38.85m25.7 348.02V38.85m12.85 348.02V38.85m13 348.02V38.85m25.7 348.02V38.85m12.85 348.02V38.85m13 348.02V38.85m25.84 348.02V38.85m12.85 348.02V38.85m13 348.02V38.85m25.7 348.02V38.85m12.85 348.02V38.85m13 348.02V38.85m25.7 348.02V38.85m12.85 348.02V38.85m12.99 348.02V38.85m25.71 348.02V38.85m12.85 348.02V38.85m12.99 348.02V38.85m25.85 348.02V38.85m12.85 348.02V38.85m12.99 348.02V38.85m25.71 348.02V38.85m12.85 348.02V38.85m12.99 348.02V38.85m25.71 348.02V38.85m12.85 348.02V38.85m12.99 348.02V38.85" style="stroke-width:0.53;stroke:#FFFFFF;stroke-linecap:butt"/><path d="M42.91 371.05h884.12M42.91 265.59h884.12M42.91 160.13h884.12M42.91 54.67h884.12M91.71 386.87V38.85m51.55 348.02V38.85m51.69 348.02V38.85m51.55 348.02V38.85m51.55 348.02V38.85m51.55 348.02V38.85m51.69 348.02V38.85m51.55 348.02V38.85m51.55 348.02V38.85m51.55 348.02V38.85m51.69 348.02V38.85m51.55 348.02V38.85m51.55 348.02V38.85m51.55 348.02V38.85m51.69 348.02V38.85m51.55 348.02V38.85m51.55 348.02V38.85" style="stroke-width:1.07;stroke:#FFFFFF;stroke-linecap:butt"/><path d="M83.1 323.35v.28l4.23-1.42v-1.33l4.38 1.07v.05l4.38-.8v1.37l3.95-2.12v.46l4.38-1.35v-.75l4.24-.13 4.38-1.48v.83l4.23-2.29v.61l4.38-.73v1.4l4.38-2.86v.57l4.24-.9v-.57l4.38-6.32v2.68l4.23-5.27v1l4.38-.5v.39l4.38-1.24v.36l4.09-2.42v1.87l4.38-2.77v.41l4.24-2.8v1.46l4.38-1.97 4.23-2.72v.59l4.38-1.34v-1.22l4.38 2.81v.1l4.24-7.63v.83l4.38-2.86v1.57l4.23-2.45v-.05l4.38.54v.07l4.38-.68v.64l3.95-2.7v1.01l4.38-2.66v1.15l4.24-3.18v1.23l4.38-2.87v.7l4.23-1.86 4.38-2.9v.88l4.38-4.07v1.79l4.24-3.71v1.75l4.38-4.64v3.01l4.23-6.27 4.38 2.17v-.16l4.38-1.13v1.04l3.95-2.45v1.05l4.38-3.13v1.03l4.24-2.93v1.03l4.38-3.22v1.47l4.23-3.11v.42l4.38-1.25v.7l4.38-2.56v1.15l4.24-3.55v2.03l4.37-1.57v-.43l4.24-2.1v1.07l4.38.31v.51l4.38-4.51v1.86l3.95.31v-2.4l4.38-3.57v6.19l4.24-9.03v2.62l4.38-5.09v1.91l4.23-4.93v2.18l4.38-2.06v-.06l4.38-.34v-.09l4.24.25v12.97l4.37-16.01v2.37l4.24-5.57v2.73l4.38.33v-.53l4.38-2.11v1.09l4.09-3.26v1.02l4.38-.76v-.57l4.24-6.92v6.2l4.38-3.88v-1.5l4.23 1.31v.62l4.38-3.22v.43l4.38-2.27v.88l4.24-4.01v-1.99l4.37 4.91v-.71l4.24.98 8.76 2.33v.81l3.95-5.79v1.85l4.38-3.21v.36l4.24 11.71v1.59l4.38-4.35v1.23l4.23-3.8v1.03l4.38-17.09v1.58l4.38-2.41v.48l4.24-.19v-.44l4.37-1.88v.41l4.24-9.77v7.79l4.38-3.67v-.93l4.38 5.43v-5.9l3.95 4.22v1.96l4.38-3.73 4.24.71v-.94l4.38-.3v1.24l4.23 17.41v.92l4.38-3.01v2.07l4.38-4.76v3.21l4.24-.85v-1.57l4.37-10.13v6.39l4.24-26.73v26.22l4.38-22.83 4.38-1.53 3.95 2.21 8.62-6.72 4.37-.99 4.24-2.9 4.38-.68 4.38.36 4.24-1.24 4.37-.74 4.24-1.78 4.38.64 4.38 1.24 4.09-8.89 4.38 3.89 4.24 1.31 4.38 1.24 4.23-5.25 4.38-3.85 4.38-.51 4.24 2.63 4.37 2.93 4.24-2.9 4.38.18 4.38.66 3.95-1.52 4.38-4.59 4.24-2.4 4.37.13 4.24-4.42 4.38-2.8 4.38-2.46 4.24-.23 4.37 1.84 4.24-.55 4.38.24 4.38.59 3.95-1.27 4.38-4.22 4.24-11.6 4.37-1.92 4.24 1.04 4.38 3.56 4.38-2.54 4.23.79 4.38-.18 4.24-.47 4.38-.16 4.38-2.2 3.95-1.24 4.38-2.46 4.24-3.71 4.37-2.11 4.24-2.69 4.38-4.47 4.38-.89 4.23 1.7 4.38.18 4.24-2.39 4.38-.79 4.38-3.54 4.09-2 4.38-2.54 4.24-1.82 4.37-3.2 4.24-2.22 4.38-.6 4.38-.17 4.23-.89 4.38-2.85 4.24 1.13 4.38-.61 4.38 1 3.95-2.74 4.38-4.37 4.24-4.99 4.37-1.69 4.24-5.45 4.38-7.72 4.38 1.31 4.23.61 4.38-1.25 4.24-1.19 4.38-3.29 4.38-.19 3.95-2.31v235.9l-3.95.19-4.38 1.27-4.38-.37-4.24.33-4.38.19-4.23-.02-4.38-.12-4.38 1.64-4.24.31-4.37.58-4.24.88-4.38 1.76-3.95.9-4.38-.1-4.38.1-4.24.17-4.38.49-4.23.29-4.38-.35-4.38.26-4.24 1-4.37 1.17-4.24.73-4.38.97-4.09.41-4.38 1.35-4.38-.15-4.24 2.03-4.38.65-4.23-.96-4.38-.44-4.38.78-4.24.99-4.37.59-4.24.92-4.38.51-3.95.66-4.38 1.27-4.38.14-4.24-.09-4.38-.32-4.23-.2-4.38.88-4.38-2.35-4.24.51-4.37.45-4.24 2.03-4.38 1.16-3.95.08-4.38-.51-4.38.43-4.24-.12-4.37-.84-4.24-.11-4.38.74-4.38.82-4.24.73-4.37.21-4.24.77-4.38.51-3.95.87-4.38-.07-4.38-.17-4.24.74-4.37-1.29-4.24-1.32-4.38.62-4.38 1.17-4.23 1.73-4.38.08-4.24-.9-4.38-2.51-4.09 4.88-4.38.53-4.38-.28-4.24.25-4.37.49-4.24.22-4.38-.2-4.38.29-4.24.88-4.37.16-8.62 2.66-3.95-1.08-4.38 1.06-4.38 7.93v-8.12l-4.24 7.76v-.49l-4.37 1.07v.08l-4.24.34v-.58l-4.38.7v-.03l-4.38.18v-.12l-4.23-4.26v.19l-4.38-1.53v.47l-4.24-.54-4.38.2v-.12l-3.95-2.5v2.59l-4.38-2.07v-.29l-4.38 2.7v-2.79l-4.24 2.83v-.03l-4.37.18v.5l-4.24-.11v-.2l-4.38.87v-.56l-4.38 7.89v-.24l-4.23 1.33v-.33l-4.38.89v-.57l-4.24-6.3v.13l-4.38.93v-1.15l-3.95 4.01v-.12l-8.76.9-4.24-.7v-.48l-4.37-.08v.43l-4.24-.27v.57l-4.38-1.05v.19l-4.38.22V336l-4.23.75v.82l-4.38-3.98v3.14l-4.24-3v.6l-4.38-.85v-.04l-4.09.64v-.43l-4.38.2v.34l-4.38.19v-.67l-4.24 1.07v-.29l-4.37 5.2v-4.8l-4.24.75v-.4l-4.38.31v-.25l-4.38 1.14v-.64l-4.23 1.26v-.23l-4.38.87v-.35l-4.24 2.37v-1.8l-4.38.65v1.05l-3.95-.67v-.23l-4.38 1.32v-.24l-4.38.33v-.39l-4.24.22v.17l-4.37.49v-.45l-4.24.84v-.26l-4.38.13v.02l-4.38.34V341l-4.23 1.14v-.45l-4.38.83v-.09l-4.24.65v-.31l-4.38.79v-.07l-3.95.46v-.27l-4.38.18v.21l-4.38-.73-4.23 2v-.88l-4.38 1.24v-.34l-4.24.99v-.56l-4.38 2.31v-.58l-4.38 1.3-4.23.35v-.21l-4.38.64v-.22l-4.24.46v-.22l-4.38.59v-.16l-3.95.68v-.15l-4.38.4v-.01l-4.38-.01v-.22l-4.23.79v-.26l-4.38.66v-.19l-4.24 1.82v-.26l-4.38-.22v.52l-4.38-.03v-.21l-4.23.56v-.07l-4.38.22v-.05l-4.24.62v-.13l-4.38.52v-.55l-4.09.62v.02l-4.38.14v-.14l-4.38.27v-.13l-4.23.96v-.48l-4.38 1.63v.13l-4.24.37v-.44l-4.38.74v-.24l-4.38.22v-.27l-4.23.39v-.07l-4.38.2-4.24.14v.05l-4.38.42v-.18l-3.95.08v.12l-4.38.37v-.08l-4.38-.02v.11l-4.23.2v.04z" style="stroke-width:0.00;stroke:none;stroke-linecap:butt;fill:#F8766D;fill-opacity:0.28"/><path d="M83.1 323.35v.28l4.23-1.42v-1.33l4.38 1.07v.05l4.38-.8v1.37l3.95-2.12v.46l4.38-1.35v-.75l4.24-.13 4.38-1.48v.83l4.23-2.29v.61l4.38-.73v1.4l4.38-2.86v.57l4.24-.9v-.57l4.38-6.32v2.68l4.23-5.27v1l4.38-.5v.39l4.38-1.24v.36l4.09-2.42v1.87l4.38-2.77v.41l4.24-2.8v1.46l4.38-1.97 4.23-2.72v.59l4.38-1.34v-1.22l4.38 2.81v.1l4.24-7.63v.83l4.38-2.86v1.57l4.23-2.45v-.05l4.38.54v.07l4.38-.68v.64l3.95-2.7v1.01l4.38-2.66v1.15l4.24-3.18v1.23l4.38-2.87v.7l4.23-1.86 4.38-2.9v.88l4.38-4.07v1.79l4.24-3.71v1.75l4.38-4.64v3.01l4.23-6.27 4.38 2.17v-.16l4.38-1.13v1.04l3.95-2.45v1.05l4.38-3.13v1.03l4.24-2.93v1.03l4.38-3.22v1.47l4.23-3.11v.42l4.38-1.25v.7l4.38-2.56v1.15l4.24-3.55v2.03l4.37-1.57v-.43l4.24-2.1v1.07l4.38.31v.51l4.38-4.51v1.86l3.95.31v-2.4l4.38-3.57v6.19l4.24-9.03v2.62l4.38-5.09v1.91l4.23-4.93v2.18l4.38-2.06v-.06l4.38-.34v-.09l4.24.25v12.97l4.37-16.01v2.37l4.24-5.57v2.73l4.38.33v-.53l4.38-2.11v1.09l4.09-3.26v1.02l4.38-.76v-.57l4.24-6.92v6.2l4.38-3.88v-1.5l4.23 1.31v.62l4.38-3.22v.43l4.38-2.27v.88l4.24-4.01v-1.99l4.37 4.91v-.71l4.24.98 8.76 2.33v.81l3.95-5.79v1.85l4.38-3.21v.36l4.24 11.71v1.59l4.38-4.35v1.23l4.23-3.8v1.03l4.38-17.09v1.58l4.38-2.41v.48l4.24-.19v-.44l4.37-1.88v.41l4.24-9.77v7.79l4.38-3.67v-.93l4.38 5.43v-5.9l3.95 4.22v1.96l4.38-3.73 4.24.71v-.94l4.38-.3v1.24l4.23 17.41v.92l4.38-3.01v2.07l4.38-4.76v3.21l4.24-.85v-1.57l4.37-10.13v6.39l4.24-26.73v26.22l4.38-22.83 4.38-1.53 3.95 2.21 8.62-6.72 4.37-.99 4.24-2.9 4.38-.68 4.38.36 4.24-1.24 4.37-.74 4.24-1.78 4.38.64 4.38 1.24 4.09-8.89 4.38 3.89 4.24 1.31 4.38 1.24 4.23-5.25 4.38-3.85 4.38-.51 4.24 2.63 4.37 2.93 4.24-2.9 4.38.18 4.38.66 3.95-1.52 4.38-4.59 4.24-2.4 4.37.13 4.24-4.42 4.38-2.8 4.38-2.46 4.24-.23 4.37 1.84 4.24-.55 4.38.24 4.38.59 3.95-1.27 4.38-4.22 4.24-11.6 4.37-1.92 4.24 1.04 4.38 3.56 4.38-2.54 4.23.79 4.38-.18 4.24-.47 4.38-.16 4.38-2.2 3.95-1.24 4.38-2.46 4.24-3.71 4.37-2.11 4.24-2.69 4.38-4.47 4.38-.89 4.23 1.7 4.38.18 4.24-2.39 4.38-.79 4.38-3.54 4.09-2 4.38-2.54 4.24-1.82 4.37-3.2 4.24-2.22 4.38-.6 4.38-.17 4.23-.89 4.38-2.85 4.24 1.13 4.38-.61 4.38 1 3.95-2.74 4.38-4.37 4.24-4.99 4.37-1.69 4.24-5.45 4.38-7.72 4.38 1.31 4.23.61 4.38-1.25 4.24-1.19 4.38-3.29 4.38-.19 3.95-2.31m0 235.9-3.95.19-4.38 1.27-4.38-.37-4.24.33-4.38.19-4.23-.02-4.38-.12-4.38 1.64-4.24.31-4.37.58-4.24.88-4.38 1.76-3.95.9-4.38-.1-4.38.1-4.24.17-4.38.49-4.23.29-4.38-.35-4.38.26-4.24 1-4.37 1.17-4.24.73-4.38.97-4.09.41-4.38 1.35-4.38-.15-4.24 2.03-4.38.65-4.23-.96-4.38-.44-4.38.78-4.24.99-4.37.59-4.24.92-4.38.51-3.95.66-4.38 1.27-4.38.14-4.24-.09-4.38-.32-4.23-.2-4.38.88-4.38-2.35-4.24.51-4.37.45-4.24 2.03-4.38 1.16-3.95.08-4.38-.51-4.38.43-4.24-.12-4.37-.84-4.24-.11-4.38.74-4.38.82-4.24.73-4.37.21-4.24.77-4.38.51-3.95.87-4.38-.07-4.38-.17-4.24.74-4.37-1.29-4.24-1.32-4.38.62-4.38 1.17-4.23 1.73-4.38.08-4.24-.9-4.38-2.51-4.09 4.88-4.38.53-4.38-.28-4.24.25-4.37.49-4.24.22-4.38-.2-4.38.29-4.24.88-4.37.16-8.62 2.66-3.95-1.08-4.38 1.06-4.38 7.93v-8.12l-4.24 7.76v-.49l-4.37 1.07v.08l-4.24.34v-.58l-4.38.7v-.03l-4.38.18v-.12l-4.23-4.26v.19l-4.38-1.53v.47l-4.24-.54-4.38.2v-.12l-3.95-2.5v2.59l-4.38-2.07v-.29l-4.38 2.7v-2.79l-4.24 2.83v-.03l-4.37.18v.5l-4.24-.11v-.2l-4.38.87v-.56l-4.38 7.89v-.24l-4.23 1.33v-.33l-4.38.89v-.57l-4.24-6.3v.13l-4.38.93v-1.15l-3.95 4.01v-.12l-8.76.9-4.24-.7v-.48l-4.37-.08v.43l-4.24-.27v.57l-4.38-1.05v.19l-4.38.22V336l-4.23.75v.82l-4.38-3.98v3.14l-4.24-3v.6l-4.38-.85v-.04l-4.09.64v-.43l-4.38.2v.34l-4.38.19v-.67l-4.24 1.07v-.29l-4.37 5.2v-4.8l-4.24.75v-.4l-4.38.31v-.25l-4.38 1.14v-.64l-4.23 1.26v-.23l-4.38.87v-.35l-4.24 2.37v-1.8l-4.38.65v1.05l-3.95-.67v-.23l-4.38 1.32v-.24l-4.38.33v-.39l-4.24.22v.17l-4.37.49v-.45l-4.24.84v-.26l-4.38.13v.02l-4.38.34V341l-4.23 1.14v-.45l-4.38.83v-.09l-4.24.65v-.31l-4.38.79v-.07l-3.95.46v-.27l-4.38.18v.21l-4.38-.73-4.23 2v-.88l-4.38 1.24v-.34l-4.24.99v-.56l-4.38 2.31v-.58l-4.38 1.3-4.23.35v-.21l-4.38.64v-.22l-4.24.46v-.22l-4.38.59v-.16l-3.95.68v-.15l-4.38.4v-.01l-4.38-.01v-.22l-4.23.79v-.26l-4.38.66v-.19l-4.24 1.82v-.26l-4.38-.22v.52l-4.38-.03v-.21l-4.23.56v-.07l-4.38.22v-.05l-4.24.62v-.13l-4.38.52v-.55l-4.09.62v.02l-4.38.14v-.14l-4.38.27v-.13l-4.23.96v-.48l-4.38 1.63v.13l-4.24.37v-.44l-4.38.74v-.24l-4.38.22v-.27l-4.23.39v-.07l-4.38.2-4.24.14v.05l-4.38.42v-.18l-3.95.08v.12l-4.38.37v-.08l-4.38-.02v.11l-4.23.2v.04" style="stroke-width:1.07;stroke:none;stroke-linecap:butt"/><path d="m108.66 351.18 4.38-5.79v.6l4.23-1.29v-1.17l4.38.06v.03l4.38 2.23v-2.83l4.24 1.7v-.77l4.38-5.03v-.81l4.23-2.94v1.27l4.38.26v.16l4.38-1.26v-.02l4.09-1.39v1.19l4.38-1.55v1.34l4.24-2.48v1.27h4.38v.93l4.23-1.71v1.43l4.38-1.23v1.37l4.38-7.61v-.33l4.24-1.36v-.11l4.38.12v-.72l4.23.71v.52l4.38-1.23v.5l4.38-2.19v.72l3.95-1.15v-.1l4.38-.41v1.39l4.24-2.18v.09l4.38-.09v-1.54l4.23 1.73 4.38-4.36v2.36l4.38-4.31v.45l4.24-1.54v-.64l4.38-.43v.85l4.23-2.98 4.38.22v1.54l4.38-1.8v.66l3.95-1.89v1.55l4.38-2.19v.42l4.24-1.27v.76l4.38.15 4.23-4.56v1.63l4.38-3.61v.09l4.38-1.04v-.39l4.24-1.97v.09l4.37-3.12v-.22l4.24-1.76v1.59l4.38-1.63v-.13l4.38-1.93v1.88l3.95-3.26v-.24l4.38-.58v.17l4.24.42v.2l4.38-.67v.47l4.23-3.07v1.03l4.38-1.35v.08l4.38-1.29v.96l4.24-1.62v-.71l4.37-1.64v1.64l4.24-3.45v1.86l4.38-.68V282l4.38-1.54v-.3l4.09-.61 4.38-1.81v.69l4.24-23.47v22.99l4.38-20.99v-3.95l4.23-10.88v4.91l4.38-6.21v.81l4.38-2.21v.72l4.24-9.15v.27l4.37-2.34v.12l4.24 1.34 4.38 1.54v.8l4.38-2.65v-.11l3.95-3.3v1.58l4.38-3.48v.71l4.24 10.33v1.91l4.38-3.84v1.09l4.23-4.03v1.37l4.38-16.31v1.11l4.38-2.46v.8l4.24-1.12v.51l4.37-2.58v.91l4.24-6.67v4.66l4.38-1.95v-.27l4.38 3.05v-3.35l3.95 1.82v.95l4.38-2.53 4.24-1.02v.88l4.38-2.54v-1.09l4.23 30.56v-29.64l4.38 27.49v1.95l4.38-3.2v2.34l4.24-1.18v-1.26l4.37-3.84v2.62l4.24.37v1.08l4.38-34.16 4.38.59 3.95-.59 4.38-1.32 4.24-.01 4.37-1.26 4.24-5.64 4.38-.3 4.38.12 4.24-.23 4.37-2.02 4.24-.55 4.38 1.42 4.38-1.59 4.09-6.94 4.38 1.02 4.24.81 4.38-1.11 4.23-5.52 4.38.15 4.38-.38 4.24 2.55 4.37 1.05 4.24-2.87 4.38-2.16 4.38 4.09 3.95-1.44 4.38-.33 4.24-2.48 4.37.91 4.24-.05 4.38-.97 4.38-1.39 4.24-.83 4.37.39 4.24.61 4.38-2.95 4.38-6.84 3.95 2.29 4.38-3.74 4.24-1.04 4.37-2.04 4.24-1.63 4.38 1.31 4.38-.49 4.23.21 4.38.01 4.24-1.04 4.38.06 4.38-1.3 3.95-1.68 4.38-1.82 4.24-2.4 4.37-3.67 4.24-2.55 4.38-2.4 4.38-.03 4.23-.46 4.38.37 4.24-1.65 4.38-.75 4.38-3.52 4.09-2.74 4.38-3.04 4.24-2.5 4.37-3.09 4.24-.28 4.38.15 4.38.74 4.23 1.91 4.38-3.6 4.24-3.94 4.38 2.88 4.38-3.7 3.95-2.78 4.38-3.36 4.24-5.37 4.37-1.29 4.24-3.82 4.38-5.37 4.38.08 4.23.14 4.38-.72 4.24 1.19 4.38-.35 4.38-2.51 3.95-2.25 4.38-3.38 4.24-2.37 4.37 1.51v215.53l-4.37-.65h-4.24l-4.38 1.02-3.95-.13-4.38 1.43-4.38-.81h-4.24l-4.38-.03-4.23-.13-4.38.16-4.38 1.04-4.24.09-4.37.35-4.24.69-4.38 1.37-3.95.81-4.38.84-4.38.94-4.24.21-4.38.91-4.23-.27-4.38-.23-4.38.1-4.24.29-4.37.71-4.24.48-4.38 1.13-4.09.16-4.38 1.01-4.38.21-4.24 1.63-4.38.05-4.23.23-4.38-.49-4.38.41-4.24.95-4.37.59-4.24.86-4.38.53-3.95.81-4.38 1.04-4.38-.09-4.24.1-4.38-.54-4.23.03-4.38.18-4.38-1.64-4.24.41-4.37.61-4.24.12-4.38 1.02-3.95-.1-4.38.52-4.38.76-4.24-.24-4.37-.22-4.24.08-4.38.76-4.38-.06-4.24.35-4.37.06-4.24.7-4.38-.44-3.95 1.43-4.38.5-4.38-.89-4.24.27-4.37-.28-4.24-1.19-4.38 1.03-4.38-.16-4.23 2.23-4.38-.34-4.24-.63-4.38-1.35-4.09 3.47-4.38 1.34-4.38-.44-4.24.08-4.37.86-4.24.28-4.38-.11-4.38.07-4.24 1.5-4.37.25-4.24.36-4.38.65-3.95-.47-4.38.41-4.38 9.87v-.04l-4.24-.14v-.11l-4.37.57v.05l-4.24.46v-.48l-4.38.53v-.03l-4.38-7.55v7.35l-4.23-7.45v.36l-4.38-.5v.01l-4.24-.22-4.38.61v-.19l-3.95-.98v1.38l-4.38-1.2v-.26l-4.38 1.46v-1.65l-4.24 1.85v-.17l-4.37.33v.01l-4.24-.13v-.07l-4.38.59v-.39l-4.38 7.51v-.5l-4.23 1.31v-.36l-4.38 1.06v-.61l-4.24-4.97v-.07l-4.38.88v-.67l-3.95 1.51v.78l-4.38.46v-.04l-4.38-.29-4.24-1.13v-.29l-4.37.58v.15l-4.24 3.99v.12l-4.38-.28v.02l-4.38-1.27v1.35l-4.23-1.56v.32l-4.38 4.66v-4.36l-4.24 4.71v-.07l-4.38-.12-4.09.18v.15l-4.38-.55v.91l-4.38.79v-.68l-4.24 1.38v-.53l-4.37.71v-.15l-4.24-.1v.54l-4.38.39v-.27l-4.38.64v-.29l-4.23.22v.37l-4.38.8v-.54l-4.24-.13v.32l-4.38-.46v-.14l-3.95 1.28v-.44l-4.38.22v.34l-4.38 1.18v-.6l-4.24.65v.29l-4.37 1.09v-.15l-4.24.45v.31l-4.38-.34v.09l-4.38-.17v.41l-4.23.91-4.38-.29v.51l-4.24.28v.01l-4.38-.45v.22l-3.95.34v-.15l-4.38.31v-.04l-4.38.15-4.23.91v-.27l-4.38.2v.18l-4.24.18v-.3l-4.38.96v-.29l-4.38 1.23-4.23-.25v.07l-4.38.29v.02l-4.24-.01v-.06l-4.38.17v.02l-3.95.41v-.03l-4.38.29v-.01l-4.38.54V362l-4.23.46v-.22l-4.38.36v-.37l-4.24.76v-.28l-4.38 1v.11l-4.38.41v-.22l-4.23.88v-.19l-4.38.1v-.1l-4.24.35v-.22l-4.38.07v-.03l-4.09.18v-.12l-4.38.46v-.11l-4.38.14v-.12l-4.23-.09v.11l-4.38.47v-.05l-4.24-.02v.5l-4.38-.44v.28l-4.38-.04v.09l-4.23.4v.12l-4.38.2z" style="stroke-width:0.00;stroke:none;stroke-linecap:butt;fill:#00BFC4;fill-opacity:0.28"/><path d="m108.66 351.18 4.38-5.79v.6l4.23-1.29v-1.17l4.38.06v.03l4.38 2.23v-2.83l4.24 1.7v-.77l4.38-5.03v-.81l4.23-2.94v1.27l4.38.26v.16l4.38-1.26v-.02l4.09-1.39v1.19l4.38-1.55v1.34l4.24-2.48v1.27h4.38v.93l4.23-1.71v1.43l4.38-1.23v1.37l4.38-7.61v-.33l4.24-1.36v-.11l4.38.12v-.72l4.23.71v.52l4.38-1.23v.5l4.38-2.19v.72l3.95-1.15v-.1l4.38-.41v1.39l4.24-2.18v.09l4.38-.09v-1.54l4.23 1.73 4.38-4.36v2.36l4.38-4.31v.45l4.24-1.54v-.64l4.38-.43v.85l4.23-2.98 4.38.22v1.54l4.38-1.8v.66l3.95-1.89v1.55l4.38-2.19v.42l4.24-1.27v.76l4.38.15 4.23-4.56v1.63l4.38-3.61v.09l4.38-1.04v-.39l4.24-1.97v.09l4.37-3.12v-.22l4.24-1.76v1.59l4.38-1.63v-.13l4.38-1.93v1.88l3.95-3.26v-.24l4.38-.58v.17l4.24.42v.2l4.38-.67v.47l4.23-3.07v1.03l4.38-1.35v.08l4.38-1.29v.96l4.24-1.62v-.71l4.37-1.64v1.64l4.24-3.45v1.86l4.38-.68V282l4.38-1.54v-.3l4.09-.61 4.38-1.81v.69l4.24-23.47v22.99l4.38-20.99v-3.95l4.23-10.88v4.91l4.38-6.21v.81l4.38-2.21v.72l4.24-9.15v.27l4.37-2.34v.12l4.24 1.34 4.38 1.54v.8l4.38-2.65v-.11l3.95-3.3v1.58l4.38-3.48v.71l4.24 10.33v1.91l4.38-3.84v1.09l4.23-4.03v1.37l4.38-16.31v1.11l4.38-2.46v.8l4.24-1.12v.51l4.37-2.58v.91l4.24-6.67v4.66l4.38-1.95v-.27l4.38 3.05v-3.35l3.95 1.82v.95l4.38-2.53 4.24-1.02v.88l4.38-2.54v-1.09l4.23 30.56v-29.64l4.38 27.49v1.95l4.38-3.2v2.34l4.24-1.18v-1.26l4.37-3.84v2.62l4.24.37v1.08l4.38-34.16 4.38.59 3.95-.59 4.38-1.32 4.24-.01 4.37-1.26 4.24-5.64 4.38-.3 4.38.12 4.24-.23 4.37-2.02 4.24-.55 4.38 1.42 4.38-1.59 4.09-6.94 4.38 1.02 4.24.81 4.38-1.11 4.23-5.52 4.38.15 4.38-.38 4.24 2.55 4.37 1.05 4.24-2.87 4.38-2.16 4.38 4.09 3.95-1.44 4.38-.33 4.24-2.48 4.37.91 4.24-.05 4.38-.97 4.38-1.39 4.24-.83 4.37.39 4.24.61 4.38-2.95 4.38-6.84 3.95 2.29 4.38-3.74 4.24-1.04 4.37-2.04 4.24-1.63 4.38 1.31 4.38-.49 4.23.21 4.38.01 4.24-1.04 4.38.06 4.38-1.3 3.95-1.68 4.38-1.82 4.24-2.4 4.37-3.67 4.24-2.55 4.38-2.4 4.38-.03 4.23-.46 4.38.37 4.24-1.65 4.38-.75 4.38-3.52 4.09-2.74 4.38-3.04 4.24-2.5 4.37-3.09 4.24-.28 4.38.15 4.38.74 4.23 1.91 4.38-3.6 4.24-3.94 4.38 2.88 4.38-3.7 3.95-2.78 4.38-3.36 4.24-5.37 4.37-1.29 4.24-3.82 4.38-5.37 4.38.08 4.23.14 4.38-.72 4.24 1.19 4.38-.35 4.38-2.51 3.95-2.25 4.38-3.38 4.24-2.37 4.37 1.51m0 215.53-4.37-.65h-4.24l-4.38 1.02-3.95-.13-4.38 1.43-4.38-.81h-4.24l-4.38-.03-4.23-.13-4.38.16-4.38 1.04-4.24.09-4.37.35-4.24.69-4.38 1.37-3.95.81-4.38.84-4.38.94-4.24.21-4.38.91-4.23-.27-4.38-.23-4.38.1-4.24.29-4.37.71-4.24.48-4.38 1.13-4.09.16-4.38 1.01-4.38.21-4.24 1.63-4.38.05-4.23.23-4.38-.49-4.38.41-4.24.95-4.37.59-4.24.86-4.38.53-3.95.81-4.38 1.04-4.38-.09-4.24.1-4.38-.54-4.23.03-4.38.18-4.38-1.64-4.24.41-4.37.61-4.24.12-4.38 1.02-3.95-.1-4.38.52-4.38.76-4.24-.24-4.37-.22-4.24.08-4.38.76-4.38-.06-4.24.35-4.37.06-4.24.7-4.38-.44-3.95 1.43-4.38.5-4.38-.89-4.24.27-4.37-.28-4.24-1.19-4.38 1.03-4.38-.16-4.23 2.23-4.38-.34-4.24-.63-4.38-1.35-4.09 3.47-4.38 1.34-4.38-.44-4.24.08-4.37.86-4.24.28-4.38-.11-4.38.07-4.24 1.5-4.37.25-4.24.36-4.38.65-3.95-.47-4.38.41-4.38 9.87v-.04l-4.24-.14v-.11l-4.37.57v.05l-4.24.46v-.48l-4.38.53v-.03l-4.38-7.55v7.35l-4.23-7.45v.36l-4.38-.5v.01l-4.24-.22-4.38.61v-.19l-3.95-.98v1.38l-4.38-1.2v-.26l-4.38 1.46v-1.65l-4.24 1.85v-.17l-4.37.33v.01l-4.24-.13v-.07l-4.38.59v-.39l-4.38 7.51v-.5l-4.23 1.31v-.36l-4.38 1.06v-.61l-4.24-4.97v-.07l-4.38.88v-.67l-3.95 1.51v.78l-4.38.46v-.04l-4.38-.29-4.24-1.13v-.29l-4.37.58v.15l-4.24 3.99v.12l-4.38-.28v.02l-4.38-1.27v1.35l-4.23-1.56v.32l-4.38 4.66v-4.36l-4.24 4.71v-.07l-4.38-.12-4.09.18v.15l-4.38-.55v.91l-4.38.79v-.68l-4.24 1.38v-.53l-4.37.71v-.15l-4.24-.1v.54l-4.38.39v-.27l-4.38.64v-.29l-4.23.22v.37l-4.38.8v-.54l-4.24-.13v.32l-4.38-.46v-.14l-3.95 1.28v-.44l-4.38.22v.34l-4.38 1.18v-.6l-4.24.65v.29l-4.37 1.09v-.15l-4.24.45v.31l-4.38-.34v.09l-4.38-.17v.41l-4.23.91-4.38-.29v.51l-4.24.28v.01l-4.38-.45v.22l-3.95.34v-.15l-4.38.31v-.04l-4.38.15-4.23.91v-.27l-4.38.2v.18l-4.24.18v-.3l-4.38.96v-.29l-4.38 1.23-4.23-.25v.07l-4.38.29v.02l-4.24-.01v-.06l-4.38.17v.02l-3.95.41v-.03l-4.38.29v-.01l-4.38.54V362l-4.23.46v-.22l-4.38.36v-.37l-4.24.76v-.28l-4.38 1v.11l-4.38.41v-.22l-4.23.88v-.19l-4.38.1v-.1l-4.24.35v-.22l-4.38.07v-.03l-4.09.18v-.12l-4.38.46v-.11l-4.38.14v-.12l-4.23-.09v.11l-4.38.47v-.05l-4.24-.02v.5l-4.38-.44v.28l-4.38-.04v.09l-4.23.4v.12l-4.38.2" style="stroke-width:1.07;stroke:none;stroke-linecap:butt"/><path d="M83.1 346.11v.28l4.23-.7v-.36l4.38-.15v.35l4.38-.67v.7l3.95-.97v.3l4.38-.75v-.28l4.24-.17 4.38-.71v.42l4.23-1.31v.47l4.38-.44v.64l4.38-1.52v.77l4.24-1.02v-.12l4.38-3.23v1.32l4.23-2.58v.32l4.38-.42v.36l4.38-.51v.11l4.09-1.61v1.12l4.38-1.53v.36l4.24-1.39v.62l4.38-.88v.06l4.23-1.2v.36l4.38-.59v-.93l4.38 1.26v.23l4.24-3.8v.37l4.38-1.46v.7l4.23-1.16v-.06l4.38.37v.13l4.38-.68v.36l3.95-1.44v.53l4.38-1.25v.31l4.24-1.26v.66l4.38-1.5v.43l4.23-.91 4.38-2.29v.87l4.38-3.06v.9l4.24-1.95v.87l4.38-2.77v1.92l4.23-4.03 4.38 1.58v-.46l4.38-.16v.62l3.95-1.2v.37l4.38-1.69v.58l4.24-1.42v.33l4.38-1.64v.75l4.23-1.98v.42l4.38-.67v.01l4.38-.82v.66l4.24-1.77v.85l4.37-1.03v-.02l4.24-1.06v.88l4.38-.35v.31l4.38-2.05v.68l3.95.69v-1.6l4.38-1.65v3.09l4.24-4.16v.85l4.38-1.95v.82l4.23-2.76v1.2l4.38-1.86v.47l4.38-.54v.36l4.24-.92v7.22l4.37-8.38v.86l4.24-2.65v1.37l4.38-.06v-.37l4.38-.91v.65l4.09-1.47v.19l4.38.45v-.51l4.24.49v-.55l4.38 1.53v-.67l4.23-.77v.6l4.38-1.38v-.01l4.38.13v-.22l4.24-1.07v-.48l4.37.79v.19l4.24.19 8.76.89v.3l3.95-4.19v1.42l4.38-1.57v.11l4.24 9.69v1.13l4.38-1.98v.53l4.23-2.03v.45l4.38-12.65v.67l4.38-1.18v.35l4.24.02v-.58l4.37-.84v.29l4.24-6.26v5.25l4.38-4.27v.21l4.38 3.87v-4.59l3.95 3.85v.77l4.38-1.72 4.24.58v-.88l4.38 1.44v.37l4.23 10.01v.53l4.38-.8v.34l4.38-1.76v1l4.24-.42v-.38l4.37-4.57v2.08l4.24-13.71v13.88l4.38-13.29 4.38-1.32 3.95 1.77 8.62-3.61 4.37-.45 4.24-1.66 4.38-.53 4.38.37 4.24-.56 4.37-.81 4.24-.8 4.38.6 4.38.61 4.09-6.45 4.38 2.55 4.24 1.27 4.38.41 4.23-3.11 4.38-2.1 4.38-.34 4.24 2.26 4.37 2.22 4.24-1.16 4.38.21 4.38.04 3.95-1.34 4.38-1.78 4.24-1.41 4.37-.03 4.24-1.3 4.38-1.34 4.38-1.28 4.24-.34 4.37 1.67 4.24.01 4.38-.06 4.38.8 3.95-.34 4.38-2.02 4.24-5.16 4.37-.85 4.24.18 4.38 2.76 4.38-1.56 4.23.4 4.38.06 4.24.11 4.38-.29 4.38-2.03 3.95-.84 4.38-1.08 4.24-1.72 4.37-1.36 4.24-1.57 4.38-1.83 4.38-.09 4.23 2.13 4.38-1.17 4.24-1.58 4.38-.41 4.38-2.02 4.09-1.18 4.38-1.34 4.24-1.03 4.37-1.72 4.24-1.37 4.38-.31 4.38.37 4.23.7 4.38-1.06 4.24-.03 4.38-.11 4.38-.01 3.95-1.47 4.38-2.75 4.24-2.1 4.37-.63 4.24-2.94 4.38-3.94 4.38 1.07 4.23.29 4.38-.45 4.24-.4 4.38-1.02 4.38-.93 3.95-1.08 4.38-2.22 4.24-.71 4.37.07" style="stroke-width:2.56;stroke:#F8766D;stroke-linecap:butt"/><path d="m108.66 363.42 4.38-3.03v-.01l4.23-1.53v-.1l4.38.08v-.11l4.38 1.74v-2.08l4.24.5v.41l4.38-1.95v-.08l4.23-1.67v-.03l4.38.3v-.3l4.38.08v-.16l4.09-.21v.6l4.38-.83v.55l4.24-.5v.37l4.38-.31v.51l4.23-.66v.39l4.38-.23v-.01l4.38-3.92v.03l4.24-.63v.05l4.38-.18v.49l4.23-1.4v1.05l4.38-.93v.06l4.38-.89v.41l3.95-.61v-.17l4.38.09v.36l4.24-1.01v.18l4.38-.09v-.18l4.23.4 4.38-2.69v.73l4.38-1.79v.46l4.24-.96v.36l4.38-1v.35l4.23-1.49 4.38-.2v-.57l4.38.07v.65l3.95-1.18v.28l4.38-1.49v.45l4.24-.73v.64l4.38-.6 4.23-2.29v.7l4.38-.91v.08l4.38-.07v-1.22l4.24-.94v.65l4.37-2.4v-.51l4.24-1.33v.93l4.38-1.53v.79l4.38-2.17v1.21l3.95-2.01v-.61l4.38.33v-.09l4.24.39v-.04l4.38-.58v.08l4.23-1.51v-.06l4.38-.61v.05l4.38-.43v.64l4.24-1.39v.5l4.37-.94v.39l4.24-2.18v1.48l4.38-.89v.26l4.38-1.88v.02l4.09-1.04 4.38 1.06v-.83l4.24-10.07v10.77l4.38-10.65v.17l4.23-3.46v.24l4.38-.38v.03l4.38-.61v.28l4.24-5.9v.24l4.37-1.35v.2l4.24 1.12 4.38.87v.27l4.38-1.1v-.62l3.95-2.03v.96l4.38-1.75v.34l4.24 8.31v.99l4.38-1.96v.66l4.23-2.13v.76l4.38-12.12v.54l4.38-1.26v.42l4.24-.28v.04l4.37-1v.33l4.24-4.2v3.38l4.38-2.65v.25l4.38 2.39V288l3.95 1.56v.7l4.38-1.49 4.24-.05v.4l4.38-.63v-.19l4.23 16.94v-16.88l4.38 15.63v.95l4.38-.87v.68l4.24-.63v-.21l4.37-1.6v.2l4.24.76v-.15l4.38-20.09 4.38-.15 3.95.17 4.38-.7 4.24-.07 4.37-.66 4.24-2.7 4.38-.11 4.38.22 4.24-.35 4.37-1.43 4.24-.63 4.38 1.08 4.38-1.13 4.09-4.93 4.38 1.11 4.24.65h4.38l4.23-3.42 4.38-.04 4.38-.69 4.24 2.06 4.37.81 4.24-.79 4.38.63 4.38.18 3.95-1.28 4.38.21 4.24-1.12 4.37.18 4.24-.32 4.38-.31 4.38-.82 4.24-.5 4.37.56 4.24.27 4.38-1.18 4.38-1.4 3.95.53 4.38-1.93 4.24.39 4.37-1.01 4.24-.95 4.38 1.75 4.38-.35 4.23.21 4.38.35 4.24-.18 4.38.01 4.38-1.62 3.95-1.11 4.38-.98 4.24-.98 4.37-1.65 4.24-1.63 4.38-1.13 4.38.17 4.23.1 4.38-.86 4.24-1.36 4.38-.68 4.38-1.2 4.09-1.35 4.38-1.32 4.24-1.63 4.37-1.44 4.24-.22 4.38-.02 4.38.87 4.23 1.84 4.38-2.26 4.24-1.22 4.38.3 4.38-1.89 3.95-1.76 4.38-1.79 4.24-2.25 4.37-.33 4.24-1.92 4.38-2.9 4.38.71 4.23-.14 4.38-.11 4.24.11 4.38.7 4.38-1.87 3.95-.66 4.38-1.31 4.24-.88 4.37.85" style="stroke-width:2.56;stroke:#00BFC4;stroke-linecap:butt"/></g><g clip-path="url(#cpMC4wMHwxMDA4LjAwfDAuMDB8NDMyLjAw)"><text x="37.98" y="374.2" lengthAdjust="spacingAndGlyphs" style="font-size:8.80px;fill:#4D4D4D;font-family:&quot;Arial&quot;" text-anchor="end" textLength="4.89">0</text><text x="37.98" y="268.74" lengthAdjust="spacingAndGlyphs" style="font-size:8.80px;fill:#4D4D4D;font-family:&quot;Arial&quot;" text-anchor="end" textLength="19.56">2000</text><text x="37.98" y="163.28" lengthAdjust="spacingAndGlyphs" style="font-size:8.80px;fill:#4D4D4D;font-family:&quot;Arial&quot;" text-anchor="end" textLength="19.56">4000</text><text x="37.98" y="57.82" lengthAdjust="spacingAndGlyphs" style="font-size:8.80px;fill:#4D4D4D;font-family:&quot;Arial&quot;" text-anchor="end" textLength="19.56">6000</text><path d="M40.17 371.05h2.74m-2.74-105.46h2.74m-2.74-105.46h2.74M40.17 54.67h2.74m48.8 334.94v-2.74m51.55 2.74v-2.74m51.69 2.74v-2.74m51.55 2.74v-2.74m51.55 2.74v-2.74m51.55 2.74v-2.74m51.69 2.74v-2.74m51.55 2.74v-2.74m51.55 2.74v-2.74m51.55 2.74v-2.74m51.69 2.74v-2.74m51.55 2.74v-2.74m51.55 2.74v-2.74m51.55 2.74v-2.74m51.69 2.74v-2.74m51.55 2.74v-2.74m51.55 2.74v-2.74" style="stroke-width:1.07;stroke:#333333;stroke-linecap:butt"/><text x="91.71" y="398.11" lengthAdjust="spacingAndGlyphs" style="font-size:8.80px;fill:#4D4D4D;font-family:&quot;Arial&quot;" text-anchor="middle" textLength="18.91">2011</text><text x="143.26" y="398.11" lengthAdjust="spacingAndGlyphs" style="font-size:8.80px;fill:#4D4D4D;font-family:&quot;Arial&quot;" text-anchor="middle" textLength="19.56">2012</text><text x="194.95" y="398.11" lengthAdjust="spacingAndGlyphs" style="font-size:8.80px;fill:#4D4D4D;font-family:&quot;Arial&quot;" text-anchor="middle" textLength="19.56">2013</text><text x="246.5" y="398.11" lengthAdjust="spacingAndGlyphs" style="font-size:8.80px;fill:#4D4D4D;font-family:&quot;Arial&quot;" text-anchor="middle" textLength="19.56">2014</text><text x="298.05" y="398.11" lengthAdjust="spacingAndGlyphs" style="font-size:8.80px;fill:#4D4D4D;font-family:&quot;Arial&quot;" text-anchor="middle" textLength="19.56">2015</text><text x="349.6" y="398.11" lengthAdjust="spacingAndGlyphs" style="font-size:8.80px;fill:#4D4D4D;font-family:&quot;Arial&quot;" text-anchor="middle" textLength="19.56">2016</text><text x="401.29" y="398.11" lengthAdjust="spacingAndGlyphs" style="font-size:8.80px;fill:#4D4D4D;font-family:&quot;Arial&quot;" text-anchor="middle" textLength="19.56">2017</text><text x="452.84" y="398.11" lengthAdjust="spacingAndGlyphs" style="font-size:8.80px;fill:#4D4D4D;font-family:&quot;Arial&quot;" text-anchor="middle" textLength="19.56">2018</text><text x="504.39" y="398.11" lengthAdjust="spacingAndGlyphs" style="font-size:8.80px;fill:#4D4D4D;font-family:&quot;Arial&quot;" text-anchor="middle" textLength="19.56">2019</text><text x="555.94" y="398.11" lengthAdjust="spacingAndGlyphs" style="font-size:8.80px;fill:#4D4D4D;font-family:&quot;Arial&quot;" text-anchor="middle" textLength="19.56">2020</text><text x="607.63" y="398.11" lengthAdjust="spacingAndGlyphs" style="font-size:8.80px;fill:#4D4D4D;font-family:&quot;Arial&quot;" text-anchor="middle" textLength="19.56">2021</text><text x="659.18" y="398.11" lengthAdjust="spacingAndGlyphs" style="font-size:8.80px;fill:#4D4D4D;font-family:&quot;Arial&quot;" text-anchor="middle" textLength="19.56">2022</text><text x="710.73" y="398.11" lengthAdjust="spacingAndGlyphs" style="font-size:8.80px;fill:#4D4D4D;font-family:&quot;Arial&quot;" text-anchor="middle" textLength="19.56">2023</text><text x="762.28" y="398.11" lengthAdjust="spacingAndGlyphs" style="font-size:8.80px;fill:#4D4D4D;font-family:&quot;Arial&quot;" text-anchor="middle" textLength="19.56">2024</text><text x="813.97" y="398.11" lengthAdjust="spacingAndGlyphs" style="font-size:8.80px;fill:#4D4D4D;font-family:&quot;Arial&quot;" text-anchor="middle" textLength="19.56">2025</text><text x="865.52" y="398.11" lengthAdjust="spacingAndGlyphs" style="font-size:8.80px;fill:#4D4D4D;font-family:&quot;Arial&quot;" text-anchor="middle" textLength="19.56">2026</text><text x="917.07" y="398.11" lengthAdjust="spacingAndGlyphs" style="font-size:8.80px;fill:#4D4D4D;font-family:&quot;Arial&quot;" text-anchor="middle" textLength="19.56">2027</text><text x="484.97" y="410.57" lengthAdjust="spacingAndGlyphs" style="font-size:11.00px;font-family:&quot;Arial&quot;" text-anchor="middle" textLength="55.25">Time / Year</text><text lengthAdjust="spacingAndGlyphs" style="font-size:11.00px;font-family:&quot;Arial&quot;" text-anchor="middle" textLength="109.56" transform="rotate(-90 113.11 99.75)">Total page weight / KB</text><path d="M937.99 146.19h64.53v61.19h-64.53z" style="stroke-width:1.07;stroke:none;fill:#FFFFFF"/><text x="943.47" y="160.71" lengthAdjust="spacingAndGlyphs" style="font-size:11.00px;font-family:&quot;Arial&quot;" textLength="33.03">Q1-Q3</text><path d="M943.47 167.34h17.28v17.28h-17.28z" style="stroke-width:1.07;stroke:none;fill:#EBEBEB"/><path d="M944.18 168.05h15.86v15.86h-15.86z" style="stroke-width:1.07;stroke:none;stroke-linecap:butt;fill:#F8766D;fill-opacity:0.28"/><path d="M943.47 184.62h17.28v17.28h-17.28z" style="stroke-width:1.07;stroke:none;fill:#EBEBEB"/><path d="M944.18 185.33h15.86v15.86h-15.86z" style="stroke-width:1.07;stroke:none;stroke-linecap:butt;fill:#00BFC4;fill-opacity:0.28"/><text x="966.23" y="179.13" lengthAdjust="spacingAndGlyphs" style="font-size:8.80px;font-family:&quot;Arial&quot;" textLength="30.81">desktop</text><text x="966.23" y="196.41" lengthAdjust="spacingAndGlyphs" style="font-size:8.80px;font-family:&quot;Arial&quot;" textLength="25.91">mobile</text><path d="M937.99 218.34h64.53v61.19h-64.53z" style="stroke-width:1.07;stroke:none;fill:#FFFFFF"/><text x="943.47" y="232.86" lengthAdjust="spacingAndGlyphs" style="font-size:11.00px;font-family:&quot;Arial&quot;" textLength="28.12">Client</text><path d="M943.47 239.5h17.28v17.28h-17.28z" style="stroke-width:1.07;stroke:none;fill:#EBEBEB"/><path d="M945.2 248.14h13.82" style="stroke-width:2.56;stroke:#F8766D;stroke-linecap:butt"/><path d="M943.47 256.78h17.28v17.28h-17.28z" style="stroke-width:1.07;stroke:none;fill:#EBEBEB"/><path d="M945.2 265.42h13.82" style="stroke-width:2.56;stroke:#00BFC4;stroke-linecap:butt"/><text x="966.23" y="251.29" lengthAdjust="spacingAndGlyphs" style="font-size:8.80px;font-family:&quot;Arial&quot;" textLength="30.81">desktop</text><text x="966.23" y="268.57" lengthAdjust="spacingAndGlyphs" style="font-size:8.80px;font-family:&quot;Arial&quot;" textLength="25.91">mobile</text><text x="42.91" y="31.05" lengthAdjust="spacingAndGlyphs" style="font-size:11.00px;font-family:&quot;Arial&quot;" textLength="159.12">Is there a reason for the growth?</text><text x="42.91" y="14.93" lengthAdjust="spacingAndGlyphs" style="font-size:13.20px;font-family:&quot;Arial&quot;" textLength="267.14">Total page weight over the years (2011–2026)</text><text x="927.03" y="424.67" lengthAdjust="spacingAndGlyphs" style="font-size:8.80px;font-family:&quot;Arial&quot;" text-anchor="end" textLength="258.52">Source: Http Archive — https://httparchive.org/reports/page-weight</text></g></g></svg>